<svg width="34" height="35" viewBox="0 0 34 35" fill="none" xmlns="http://www.w3.org/2000/svg">
<path d="M11.8994 22.6047V23.625C11.8994 25.7136 12.7053 27.7166 14.1399 29.1935C15.5745 30.6703 17.5202 31.5 19.549 31.5C21.5778 31.5 23.5235 30.6703 24.9581 29.1935C26.3927 27.7166 27.1986 25.7136 27.1986 23.625V20.7025C26.064 20.2897 25.1076 19.4772 24.4986 18.4086C23.8895 17.34 23.6671 16.0842 23.8705 14.8631C24.074 13.642 24.6902 12.5343 25.6103 11.7357C26.5304 10.9371 27.6951 10.4991 28.8985 10.4991C30.102 10.4991 31.2667 10.9371 32.1868 11.7357C33.1069 12.5343 33.7231 13.642 33.9266 14.8631C34.13 16.0842 33.9076 17.34 33.2985 18.4086C32.6895 19.4772 31.7331 20.2897 30.5985 20.7025V23.625C30.5985 26.6418 29.4343 29.5351 27.3622 31.6683C25.29 33.8016 22.4795 35 19.549 35C16.6185 35 13.8081 33.8016 11.7359 31.6683C9.66371 29.5351 8.49957 26.6418 8.49957 23.625V22.6047C6.12297 22.1905 3.96558 20.9234 2.4098 19.028C0.854013 17.1327 0.000309179 14.7315 0 12.25L0 3.5C0 2.57174 0.358195 1.6815 0.995787 1.02513C1.63338 0.368749 2.49814 0 3.39983 0L5.09974 0C5.55059 0 5.98297 0.184374 6.30176 0.512563C6.62056 0.840752 6.79966 1.28587 6.79966 1.75C6.79966 2.21413 6.62056 2.65925 6.30176 2.98744C5.98297 3.31563 5.55059 3.5 5.09974 3.5H3.39983V12.25C3.39983 14.1065 4.11622 15.887 5.3914 17.1997C6.66659 18.5125 8.3961 19.25 10.1995 19.25C12.0029 19.25 13.7324 18.5125 15.0076 17.1997C16.2828 15.887 16.9991 14.1065 16.9991 12.25V3.5H15.2992C14.8484 3.5 14.416 3.31563 14.0972 2.98744C13.7784 2.65925 13.5993 2.21413 13.5993 1.75C13.5993 1.28587 13.7784 0.840752 14.0972 0.512563C14.416 0.184374 14.8484 0 15.2992 0L16.9991 0C17.9008 0 18.7656 0.368749 19.4032 1.02513C20.0408 1.6815 20.399 2.57174 20.399 3.5V12.25C20.3987 14.7315 19.545 17.1327 17.9892 19.028C16.4334 20.9234 14.276 22.1905 11.8994 22.6047ZM28.8985 17.5C29.3494 17.5 29.7818 17.3156 30.1006 16.9874C30.4194 16.6592 30.5985 16.2141 30.5985 15.75C30.5985 15.2859 30.4194 14.8408 30.1006 14.5126C29.7818 14.1844 29.3494 14 28.8985 14C28.4477 14 28.0153 14.1844 27.6965 14.5126C27.3777 14.8408 27.1986 15.2859 27.1986 15.75C27.1986 16.2141 27.3777 16.6592 27.6965 16.9874C28.0153 17.3156 28.4477 17.5 28.8985 17.5Z" fill="black"/>
</svg>
